<svg version="1.2" xmlns="http://www.w3.org/2000/svg" viewBox="0 0 512 512" width="512" height="512">
	<title>New Project</title>
	<style>
		.s0 { fill: #f2f2f7 } 
	</style>
	<g id="Layer 1">
		<path fill-rule="evenodd" class="s0" d="m114.6 512h-106.1v-341.8h106.1zm-53.1-388.5c-34 0-61.5-28.1-61.5-62 0-16.3 6.5-32 18-43.5 11.5-11.6 27.2-18 43.5-18 16.3 0 31.9 6.4 43.5 18 11.5 11.5 18 27.2 18 43.5 0 33.9-27.6 62-61.5 62zm450.4 388.5h-106v-166.4c0-39.7-0.8-90.5-55.2-90.5-55.2 0-63.6 43-63.6 87.6v169.3h-106.1v-341.9h101.9v46.7h1.4c14.2-26.9 48.8-55.2 100.5-55.2 107.4 0 127.2 70.7 127.2 162.6v187.8z"/>
	</g>
</svg>