<svg version="1.2" xmlns="http://www.w3.org/2000/svg" viewBox="0 0 512 512" width="512" height="512">
	<title>New Project</title>
	<style>
		.s0 { fill: #f2f2f7 } 
	</style>
	<g id="Layer 1">
	</g>
	<path fill-rule="evenodd" class="s0" d="m252.7 0c-143.2 0-252.7 111.5-252.7 258.3 0 117.4 72.1 217.9 175 253.3 13.2 2.4 17.8-6 17.8-12.8 0-6.6-0.3-42.8-0.3-65 0 0-72.2 15.8-87.4-31.6 0 0-11.8-30.8-28.7-38.7 0 0-23.7-16.7 1.6-16.3 0 0 25.7 2.1 39.9 27.3 22.6 40.8 60.5 29.1 75.2 22.1 2.4-16.9 9.1-28.7 16.6-35.7-57.8-6.5-116-15.1-116-117 0-29.1 7.9-43.7 24.4-62.3-2.7-6.9-11.5-35.3 2.7-71.9 21.5-6.9 71.2 28.6 71.2 28.6 20.6-6 42.8-9 64.8-9 22 0 44.2 3 64.9 9 0 0 49.6-35.6 71.2-28.6 14.1 36.7 5.3 65 2.7 71.9 16.5 18.7 26.6 33.3 26.6 62.3 0 102.2-60.8 110.3-118.5 117 9.5 8.4 17.5 24.3 17.5 49.1 0 35.7-0.3 79.9-0.3 88.5 0 6.9 4.8 15.3 17.9 12.9 103.2-35.2 173.2-135.7 173.2-253.1 0-146.8-116.1-258.3-259.3-258.3zm-113.6 407.5c-0.7 2.1 1.4 4.6 4.5 5.2 2.7 1 5.8 0 6.4-2.1 0.6-2.1-1.4-4.6-4.5-5.5-2.6-0.8-5.6 0.3-6.4 2.4zm45.7-1.8c-3 0.7-5.1 2.8-4.8 5.2 0.3 2.1 3 3.5 6.1 2.7 3-0.7 5.1-2.7 4.8-4.8-0.3-2-3.1-3.4-6.1-3.1zm-19.1 10.4c-3.1 0-5.6-1.7-5.6-3.8 0-2.2 2.5-3.9 5.6-3.9 3.1 0 5.6 1.7 5.6 3.9 0 2.1-2.5 3.8-5.6 3.8zm-65.4-50.9c-1.3 1-1 3.4 0.8 5.5 1.6 1.6 4 2.4 5.3 1 1.4-1 1.1-3.5-0.7-5.5-1.6-1.7-4-2.4-5.4-1zm-11.1-8.6c-0.7 1.4 0.3 3 2.4 4.1 1.6 1.1 3.7 0.7 4.4-0.7 0.7-1.4-0.3-3.1-2.4-4.2-2-0.6-3.7-0.3-4.4 0.8zm33.4 37.7c-1.6 1.3-1 4.5 1.4 6.5 2.3 2.5 5.3 2.8 6.7 1.1 1.3-1.4 0.7-4.6-1.4-6.6-2.2-2.4-5.3-2.7-6.7-1zm-11.7-15.6c-1.7 1.1-1.7 3.8 0 6.2 1.6 2.5 4.4 3.5 5.7 2.5 1.7-1.4 1.7-4.1 0-6.6-1.4-2.4-4.1-3.5-5.7-2.1z"/>
</svg>