<svg version="1.2" xmlns="http://www.w3.org/2000/svg" viewBox="0 0 512 512" width="512" height="512">
	<title>New Project</title>
	<style>
		.s0 { fill: #1c1c1e } 
		.s1 { fill: #f2f2f7 } 
	</style>
	<path id="Shape 1" fill-rule="evenodd" class="s0" d="m512 0v512h-512v-512z"/>
	<g id="Layer 1">
		<path fill-rule="evenodd" class="s1" d="m562-101.8h-612.1c-28 0-50.8 23.2-50.8 51.6v612.7c0 28.5 22.8 51.7 50.8 51.7h612.1c28.1 0 51-23.2 51-51.7v-612.7c0-28.4-22.9-51.6-51-51.6zm-447.2 613.7h-105.8v-341.7h106v341.7zm-52.9-388.4c-33.9 0-61.4-27.5-61.4-61.5 0-34 27.5-61.5 61.4-61.5 33.9 0 61.3 27.5 61.3 61.5 0 34-27.4 61.5-61.3 61.5zm449.5 388.4h-105.8v-166.2c0-39.7-0.8-90.6-54.9-90.6-55.2 0-63.6 43.1-63.6 87.7v169.1h-105.8v-341.7h101.5v46.7h1.4c14.2-26.9 48.8-55.2 100.2-55.2 107.1 0 127 70.8 127 162.9z"/>
	</g>
</svg>