<svg version="1.2" xmlns="http://www.w3.org/2000/svg" viewBox="0 0 512 512" width="512" height="512">
	<title>New Project</title>
	<style>
		.s0 { fill: #f2f2f7 } 
		.s1 { fill: #1c1c1e } 
	</style>
	<path id="Shape 1" fill-rule="evenodd" class="s0" d="m255.5 452.7c-110.9 0-200.5-87.8-200.5-196.3 0-108.6 89.6-196.4 200.5-196.4 110.9 0 200.5 87.8 200.5 196.4 0 108.5-89.6 196.3-200.5 196.3z"/>
	<g id="Layer 1">
		<path fill-rule="evenodd" class="s1" d="m0 256c0-67.9 27-133 75-181 48-48 113.1-75 181-75 67.9 0 133 27 181 75 48 48 75 113.1 75 181 0 67.9-27 133-75 181-48 48-113.1 75-181 75-67.9 0-133-27-181-75-48-48-75-113.1-75-181zm448 0c0-106-86-192-192-192v384c106 0 192-86 192-192z"/>
	</g>
</svg>