<svg version="1.2" xmlns="http://www.w3.org/2000/svg" viewBox="0 0 512 512" width="512" height="512">
	<title>New Project</title>
	<style>
		.s0 { fill: #f2f2f7 } 
		.s1 { fill: #1c1c1e } 
	</style>
	<g id="Layer 1">
		<path id="Shape 2" fill-rule="evenodd" class="s0" d="m256 512c-141 0-255-114.2-255-255.5 0-141.3 114-255.5 255-255.5 141 0 255 114.2 255 255.5 0 141.3-114 255.5-255 255.5z"/>
		<path fill-rule="evenodd" class="s1" d="m252.7 0c-143.2 0-252.7 108.9-252.7 252.3 0 114.6 72.1 212.7 175 247.3 13.2 2.4 17.8-5.8 17.8-12.5 0-6.4-0.3-41.8-0.3-63.5 0 0-72.2 15.5-87.4-30.8 0 0-11.8-30.1-28.7-37.9 0 0-23.7-16.2 1.6-15.9 0 0 25.7 2.1 39.9 26.7 22.6 39.9 60.5 28.4 75.2 21.6 2.4-16.5 9.1-28 16.6-34.8-57.8-6.5-116-14.8-116-114.3 0-28.4 7.9-42.7 24.4-60.9-2.7-6.7-11.5-34.4 2.7-70.2 21.5-6.7 71.2 27.9 71.2 27.9 20.6-5.8 42.8-8.8 64.8-8.8 22 0 44.2 3 64.9 8.8 0 0 49.6-34.7 71.2-27.9 14.1 35.9 5.3 63.5 2.7 70.2 16.5 18.3 26.6 32.6 26.6 60.9 0 99.8-60.8 107.7-118.5 114.3 9.5 8.1 17.5 23.6 17.5 47.9 0 34.9-0.3 78-0.3 86.5 0 6.7 4.8 14.9 17.9 12.5 103.2-34.4 173.2-132.5 173.2-247.1 0-143.4-116.1-252.3-259.3-252.3zm-113.6 397.9c-0.7 2.1 1.4 4.5 4.5 5.1 2.7 1 5.8 0 6.4-2.1 0.6-2-1.4-4.4-4.5-5.3-2.6-0.8-5.6 0.3-6.4 2.3zm45.7-1.7c-3 0.7-5.1 2.7-4.8 5.1 0.3 2 3 3.4 6.1 2.6 3-0.7 5.1-2.6 4.8-4.7-0.3-2-3.1-3.3-6.1-3zm-19.1 10.2c-3.1 0-5.6-1.7-5.6-3.8 0-2.1 2.5-3.8 5.6-3.8 3.1 0 5.6 1.7 5.6 3.8 0 2.1-2.5 3.8-5.6 3.8zm-65.4-49.8c-1.3 1-1 3.4 0.8 5.4 1.6 1.6 4 2.3 5.3 1 1.4-1 1.1-3.4-0.7-5.4-1.6-1.6-4-2.4-5.4-1zm-11.1-8.4c-0.7 1.4 0.3 3 2.4 4 1.6 1.1 3.7 0.8 4.4-0.7 0.7-1.3-0.3-3-2.4-4-2-0.6-3.7-0.3-4.4 0.7zm33.4 36.8c-1.6 1.4-1 4.5 1.4 6.4 2.3 2.4 5.3 2.7 6.7 1.1 1.3-1.4 0.7-4.5-1.4-6.4-2.2-2.4-5.3-2.7-6.7-1.1zm-11.7-15.2c-1.7 1.1-1.7 3.7 0 6.1 1.6 2.4 4.4 3.4 5.7 2.4 1.7-1.3 1.7-4 0-6.4-1.4-2.4-4.1-3.4-5.7-2.1z"/>
	</g>
</svg>